<svg xmlns="http://www.w3.org/2000/svg" version="1.1" xmlns:xlink="http://www.w3.org/1999/xlink" width="512" height="512" x="0" y="0" viewBox="0 0 512.001 512" style="enable-background:new 0 0 512 512" xml:space="preserve" class=""><g><path fill="#ddf5ff" d="m42.863 469.137 35.508 35.504a10.404 10.404 0 0 0 14.719 0l35.508-35.504 35.504 35.504c4.066 4.066 10.656 4.066 14.718 0l35.508-35.504 35.508 35.504c4.062 4.066 10.652 4.066 14.715 0l35.508-35.504 32.207 32.203c3.93 3.933 10.656 1.148 10.656-4.414V10.406C342.922 4.66 338.266 0 332.516 0H10.406C4.66 0 0 4.66 0 10.406v486.52c0 5.562 6.727 8.351 10.66 4.414zm0 0" opacity="1" data-original="#ddf5ff"></path><path fill="#c1e9f4" d="M319.781 0v456.598l-12.367-12.364c-4.062-4.066-10.652-4.066-14.719 0l-35.504 35.508-35.507-35.508a10.404 10.404 0 0 0-14.72 0l-35.503 35.508-35.508-35.508a10.404 10.404 0 0 0-14.719 0L85.73 479.742l-35.507-35.508c-4.063-4.066-10.653-4.066-14.715 0L0 479.742v17.184c0 5.562 6.727 8.351 10.66 4.414l32.203-32.203 35.508 35.504a10.404 10.404 0 0 0 14.719 0l35.508-35.504 35.504 35.504c4.066 4.066 10.656 4.066 14.718 0l35.508-35.504 35.508 35.504c4.062 4.066 10.652 4.066 14.715 0l35.508-35.504 32.207 32.203c3.93 3.933 10.656 1.148 10.656-4.414V10.406C342.922 4.66 338.266 0 332.516 0zm0 0" opacity="1" data-original="#c1e9f4"></path><g fill="#495959"><path d="M97.055 36.945H75.199c-7.172 0-13.008 5.832-13.008 13.008v58.274c0 7.175 5.836 13.007 13.008 13.007h21.856c12.336 0 22.375-10.035 22.375-22.37V93.66c0-5.562-2.04-10.652-5.41-14.57a22.273 22.273 0 0 0 5.41-14.57v-5.204c0-12.336-10.04-22.37-22.375-22.37zm0 15.61a6.77 6.77 0 0 1 6.761 6.761v5.204c0 3.73-3.035 6.765-6.761 6.765H77.8v-18.73zm6.761 46.308a6.77 6.77 0 0 1-6.761 6.762H77.8v-18.73h19.254c3.73 0 6.761 3.035 6.761 6.765zM207.363 105.625h-33.82V44.75a7.805 7.805 0 0 0-7.805-7.805 7.802 7.802 0 0 0-7.804 7.805v68.68a7.805 7.805 0 0 0 7.804 7.808h41.625a7.805 7.805 0 0 0 7.805-7.808 7.805 7.805 0 0 0-7.805-7.805zM272.926 105.625h-33.824V44.75a7.802 7.802 0 0 0-7.805-7.805 7.805 7.805 0 0 0-7.805 7.805v68.68a7.808 7.808 0 0 0 7.805 7.808h41.629a7.808 7.808 0 0 0 0-15.613zM138.68 36.945a7.802 7.802 0 0 0-7.805 7.805v68.68a7.805 7.805 0 1 0 15.61 0V44.75a7.802 7.802 0 0 0-7.805-7.805zM197.477 195.121H66.355a7.802 7.802 0 0 1-7.804-7.805 7.805 7.805 0 0 1 7.804-7.804h131.122a7.805 7.805 0 0 1 7.804 7.804 7.802 7.802 0 0 1-7.804 7.805zM276.566 195.121h-47.87a7.805 7.805 0 1 1 0-15.61h47.87a7.805 7.805 0 0 1 7.805 7.805 7.802 7.802 0 0 1-7.805 7.805zM205.281 257.563H66.355a7.805 7.805 0 0 1-7.804-7.805 7.802 7.802 0 0 1 7.804-7.805h138.926a7.802 7.802 0 0 1 7.805 7.805 7.805 7.805 0 0 1-7.805 7.804zM205.281 320H66.355a7.802 7.802 0 0 1-7.804-7.805 7.805 7.805 0 0 1 7.804-7.804h138.926c4.313 0 7.805 3.492 7.805 7.804S209.594 320 205.28 320zm0 0" fill="#495959" opacity="1" data-original="#495959"></path></g><path fill="#6dc54a" d="M486.617 434.992h-261.43c-14.019 0-25.382-11.363-25.382-25.383V252.246c0-14.02 11.363-25.383 25.382-25.383h261.43c14.02 0 25.383 11.364 25.383 25.383v157.367c0 14.016-11.363 25.38-25.383 25.38zm0 0" opacity="1" data-original="#6dc54a" class=""></path><path fill="#ffcd50" d="M266.434 350.79h-38.075a7.805 7.805 0 1 1 0-15.61h38.075a7.805 7.805 0 1 1 0 15.61zm0 0" opacity="1" data-original="#ffcd50"></path><path fill="#495959" d="M253.742 394.574H228.36a7.808 7.808 0 0 1 0-15.613h25.383a7.807 7.807 0 0 1 0 15.613zM301.332 394.574h-25.383a7.808 7.808 0 0 1 0-15.613h25.383a7.807 7.807 0 0 1 0 15.613zM348.922 394.574h-25.383a7.808 7.808 0 0 1 0-15.613h25.383a7.805 7.805 0 0 1 7.805 7.805 7.805 7.805 0 0 1-7.805 7.808zm0 0" opacity="1" data-original="#495959"></path><path fill="#ffcd50" d="M333.059 350.79h-38.07a7.805 7.805 0 0 1-7.805-7.806 7.802 7.802 0 0 1 7.804-7.804h38.07a7.802 7.802 0 0 1 7.805 7.804 7.805 7.805 0 0 1-7.804 7.805zM399.688 350.79h-38.075a7.805 7.805 0 1 1 0-15.61h38.075a7.805 7.805 0 1 1 0 15.61zM466.313 350.79h-38.075a7.805 7.805 0 1 1 0-15.61h38.075a7.802 7.802 0 0 1 7.804 7.804 7.805 7.805 0 0 1-7.805 7.805zm0 0" opacity="1" data-original="#ffcd50"></path><path fill="#5db33a" d="M493.39 227.781c.594 2.156.919 4.426.919 6.77v172.344c0 5.746-4.66 10.406-10.407 10.406H207.496c-2.348 0-4.613-.324-6.77-.918 2.965 10.73 12.79 18.61 24.462 18.61h261.43c14.019 0 25.382-11.364 25.382-25.38V252.246c0-11.676-7.883-21.5-18.61-24.465zm0 0" opacity="1" data-original="#5db33a"></path><path fill="#ffcd50" d="M289.273 313.16h-50.761c-7.008 0-12.692-5.683-12.692-12.691V265.57c0-7.011 5.684-12.691 12.692-12.691h50.761c7.012 0 12.692 5.68 12.692 12.691v34.899c0 7.008-5.68 12.691-12.692 12.691zm0 0" opacity="1" data-original="#ffcd50"></path><path fill="#ffbc27" d="M289.273 252.879h-13.527c7.012 0 12.691 5.68 12.691 12.691v34.899c0 7.008-5.68 12.691-12.69 12.691h13.526c7.012 0 12.692-5.683 12.692-12.691V265.57c0-7.011-5.68-12.691-12.692-12.691zm0 0" opacity="1" data-original="#ffbc27"></path><path fill="#ff7c48" d="M484.078 388.035c0 10.516-8.52 19.04-19.035 19.04-10.512 0-19.035-8.524-19.035-19.04 0-10.512 8.523-19.035 19.035-19.035 10.516 0 19.035 8.523 19.035 19.035zm0 0" opacity="1" data-original="#ff7c48"></path><path fill="#ffcd50" d="M455.523 388.035c0 10.516-8.52 19.04-19.035 19.04-10.511 0-19.035-8.524-19.035-19.04 0-10.512 8.524-19.035 19.035-19.035 10.516 0 19.035 8.523 19.035 19.035zm0 0" opacity="1" data-original="#ffcd50"></path></g></svg>